<svg width="190" height="51" viewBox="0 0 190 51" fill="none" xmlns="http://www.w3.org/2000/svg">
<path d="M4.1005 35.2006H4.1617L7.31358 50.351H10.8939L13.8621 35.2006H13.9233V50.351H18.2074V30.9196H11.5365L9.21082 43.6715H9.14962L6.73216 30.9196H0V50.351H4.1005V35.2006Z" fill="#004B93"/>
<path d="M33.2944 30.9196H28.6737V45.2503C28.6737 46.7683 28.0616 47.6792 26.8376 47.6792C25.6136 47.6792 25.0016 46.7987 25.0016 45.2503V30.9196H20.3809V43.9144C20.3809 47.7399 21.4825 50.7154 26.8376 50.7154C32.1927 50.7154 33.2944 47.7096 33.2944 43.9144V30.9196Z" fill="#004B93"/>
<path d="M38.1897 34.6237V50.351H42.8104V34.6237H46.9109V30.9196H34.0586V34.6237H38.1897Z" fill="#004B93"/>
<path d="M60.5899 30.9196H55.9692V45.2503C55.9692 46.7683 55.3572 47.6792 54.1332 47.6792C52.9092 47.6792 52.2971 46.7987 52.2971 45.2503V30.9196H47.707V43.9144C47.707 47.7399 48.8087 50.7154 54.1638 50.7154C59.5189 50.7154 60.6205 47.7096 60.6205 43.9144V30.9196H60.5899Z" fill="#004B93"/>
<path d="M70.4127 43.0946H67.0772L68.699 34.4415H68.7602L70.4127 43.0946ZM60.957 50.351H65.7307L66.404 46.6469H71.0859L71.7897 50.351H76.5634L71.6979 30.9196H65.9449L60.957 50.351Z" fill="#004B93"/>
<path d="M91.435 32.5591V50.351H93.2099V30.9196H90.3334L85.5903 48.165H85.5597L80.8166 30.9196H77.7871V50.351H79.5313V32.5591H79.5926L84.6723 50.351H86.3247L91.3738 32.5591H91.435Z" fill="#004B93"/>
<path d="M98.1682 43.216L101.198 32.2858H101.259L104.288 43.216H98.1682ZM94.3125 50.351H96.1791L97.7704 44.7038H104.625L106.216 50.351H108.083L102.299 30.9196H100.096L94.3125 50.351Z" fill="#004B93"/>
<path d="M109.031 50.351H113.744C119.466 50.351 120.843 46.9809 120.843 40.6353C120.843 34.2897 119.436 30.9196 113.744 30.9196H109.031V50.351ZM110.806 32.3769H113.652C117.477 32.3769 119.099 34.2897 119.099 40.6353C119.099 46.9505 117.477 48.8633 113.652 48.8633H110.806V32.3769Z" fill="#004B93"/>
<path d="M123.23 50.3511H124.974V41.4854H128.279C131.431 41.4854 132.073 42.5785 132.165 46.0093L132.226 47.6489C132.257 48.6812 132.349 49.6831 132.747 50.3814H134.797C134.124 49.6224 134.001 48.5901 133.971 47.5274L133.909 45.4021C133.818 42.3963 132.991 41.03 130.574 40.8175V40.7568C133.175 40.271 134.124 38.176 134.124 35.8382C134.124 32.802 132.318 30.95 129.044 30.95H123.199L123.23 50.3511ZM124.974 32.3769H128.187C131.37 32.3769 132.379 33.8039 132.379 36.1722C132.379 38.7225 130.758 39.9977 128.004 39.9977H124.974V32.3769Z" fill="#004B93"/>
<path d="M138.254 30.9196H136.51V50.351H138.254V30.9196Z" fill="#004B93"/>
<path d="M142.631 48.8633V30.9196H140.887V50.351H150.74V48.8633H142.631Z" fill="#004B93"/>
<path d="M153.769 48.8633V40.9389H161.205V39.4512H153.769V32.3769H161.725V30.9196H151.994V50.351H161.97V48.8633H153.769Z" fill="#004B93"/>
<path d="M163.623 50.3511H165.398V33.4093H165.459L172.956 50.3511H175.313V30.9196H173.568V47.8311H173.476L165.979 30.9196H163.623V50.3511ZM171.946 26.6993C171.977 27.1548 171.579 28.0049 170.998 28.0049C170.753 28.0049 170.447 27.8834 170.172 27.7013L169.468 27.3066C168.825 26.9422 168.55 26.8208 167.907 26.8208C166.714 26.8208 165.888 28.3389 165.826 29.4926H167.02C167.142 28.8854 167.479 28.1871 167.999 28.1871C168.152 28.1871 168.397 28.2781 168.672 28.3996L169.713 28.9765C170.172 29.2497 170.569 29.3712 171.059 29.3712C172.375 29.3712 173.14 27.8227 173.17 26.6993H171.946Z" fill="#004B93"/>
<path d="M180.086 43.216L183.116 32.2858H183.177L186.206 43.216H180.086ZM176.23 50.351H178.097L179.688 44.7038H186.543L188.134 50.351H190.001L184.217 30.9196H182.045L176.23 50.351Z" fill="#004B93"/>
<path d="M9.18022 13.583V15.0707H1.74424V24.4829H0V5.05139H9.70043V6.50875H1.74424V13.583H9.18022Z" fill="#009FE3"/>
<path d="M10.679 5.05139H12.4233V19.0178C12.4233 21.9021 13.7085 23.3291 16.2484 23.3291C18.8188 23.3291 20.0735 21.8718 20.0735 19.0178V5.05139H21.8483V19.0481C21.8483 21.0824 21.3587 22.5701 20.4101 23.4809C19.4615 24.3614 18.0538 24.8168 16.2484 24.8168C14.4429 24.8168 13.0659 24.3614 12.0867 23.4809C11.138 22.5701 10.6484 21.1127 10.6484 19.0481L10.679 5.05139Z" fill="#009FE3"/>
<path d="M33.8756 21.9932V5.05139H35.6198V24.4829H33.2636L25.7664 7.54105H25.7052V24.4829H23.9609V5.05139H26.3172L33.8144 21.9932H33.8756Z" fill="#009FE3"/>
<path d="M37.9746 5.05139H42.6871C44.1254 5.05139 45.2882 5.26392 46.2062 5.68899C47.1242 6.11405 47.8586 6.72128 48.3789 7.54105C48.9297 8.36081 49.2969 9.36275 49.4805 10.5772C49.6947 11.7917 49.7865 13.1883 49.7865 14.7671C49.7865 16.3459 49.6947 17.7426 49.4805 18.957C49.2969 20.1715 48.8991 21.2038 48.3789 21.9932C47.828 22.813 47.1242 23.4202 46.2062 23.8453C45.2882 24.2703 44.1254 24.4829 42.6871 24.4829H37.9746V5.05139ZM39.7189 23.0255H42.5647C43.5133 23.0255 44.3396 22.9041 45.0434 22.6308C45.7472 22.3575 46.298 21.9325 46.757 21.2949C47.1854 20.6573 47.522 19.8072 47.7362 18.7749C47.9504 17.7122 48.0423 16.4067 48.0423 14.8278C48.0423 13.2187 47.9198 11.9131 47.7362 10.8505C47.522 9.78781 47.1854 8.93769 46.757 8.30009C46.3286 7.66249 45.7472 7.20707 45.0434 6.96418C44.3396 6.69092 43.5133 6.56948 42.5647 6.56948H39.7189V23.0255Z" fill="#009FE3"/>
<path d="M60.3443 17.3479L57.3149 6.41767H57.2537L54.2242 17.3479H60.3443ZM56.2132 5.05139H58.4165L64.2 24.4829H62.3334L60.7421 18.8356H53.8876L52.2963 24.4829H50.4297L56.2132 5.05139Z" fill="#009FE3"/>
<path d="M76.8998 17.8944C76.7774 20.1412 76.2266 21.8414 75.2168 23.0255C74.2375 24.2096 72.8605 24.8169 71.0857 24.8169C69.066 24.8169 67.536 23.9971 66.4343 22.4183C65.3633 20.8091 64.8125 18.2587 64.8125 14.7975C64.8125 11.3059 65.3633 8.75554 66.4343 7.14637C67.5054 5.53721 69.066 4.7478 71.0857 4.7478C72.0649 4.7478 72.9217 4.92997 73.6255 5.23359C74.3293 5.56757 74.9413 5.99263 75.3698 6.53914C75.8288 7.08565 76.1654 7.72325 76.3796 8.45193C76.5938 9.18061 76.6856 9.93965 76.6856 10.7291H74.9413C74.9413 9.39314 74.6047 8.33048 73.9621 7.48035C73.3195 6.63023 72.3403 6.20516 71.0857 6.20516C70.3818 6.20516 69.7698 6.35697 69.219 6.66059C68.6682 6.9642 68.1786 7.44999 67.8114 8.11795C67.4136 8.7859 67.1382 9.69675 66.924 10.7594C66.7097 11.8524 66.6179 13.1883 66.6179 14.7672C66.6179 16.346 66.7097 17.6819 66.924 18.7749C67.1382 19.8679 67.4442 20.7484 67.8114 21.4164C68.2092 22.0843 68.6682 22.6005 69.219 22.8737C69.7698 23.1773 70.4124 23.3291 71.0857 23.3291C72.3403 23.3291 73.2889 22.8434 73.9927 21.8718C74.6659 20.9002 75.0637 19.5643 75.1556 17.8944H76.8998Z" fill="#009FE3"/>
<path d="M80.3575 5.05139H78.6133V24.4829H80.3575V5.05139Z" fill="#009FE3"/>
<path d="M82.6836 14.7672C82.6836 11.2756 83.2344 8.72521 84.3054 7.11604C85.3765 5.50688 86.9371 4.71747 88.9261 4.71747C90.9152 4.71747 92.4758 5.53724 93.5469 7.11604C94.6485 8.72521 95.1687 11.2756 95.1687 14.7672C95.1687 18.2588 94.6179 20.8092 93.5469 22.388C92.4452 23.9971 90.9152 24.7865 88.9261 24.7865C86.9065 24.7865 85.3765 23.9668 84.3054 22.388C83.2038 20.8092 82.6836 18.2588 82.6836 14.7672ZM84.4278 14.7672C84.4278 16.346 84.5196 17.6819 84.7338 18.7749C84.948 19.8679 85.2541 20.7484 85.6213 21.4164C85.9885 22.0843 86.4781 22.6005 87.0289 22.8738C87.5797 23.1774 88.2223 23.3292 88.8955 23.3292C89.5994 23.3292 90.2114 23.1774 90.7622 22.8738C91.313 22.5701 91.8026 22.0843 92.1698 21.4164C92.5676 20.7484 92.843 19.8376 93.0572 18.7749C93.2715 17.6819 93.3633 16.346 93.3633 14.7672C93.3633 13.1884 93.2715 11.8525 93.0572 10.7594C92.843 9.66642 92.537 8.78594 92.1698 8.11798C91.772 7.45002 91.313 6.93387 90.7622 6.66062C90.2114 6.357 89.5688 6.20519 88.8955 6.20519C88.1917 6.20519 87.5797 6.357 87.0289 6.66062C86.4781 6.96424 85.9885 7.45002 85.6213 8.11798C85.2235 8.78594 84.948 9.66642 84.7338 10.7594C84.5502 11.8525 84.4278 13.1884 84.4278 14.7672ZM91.7414 0.284668L89.0485 4.11024H87.7327L89.8136 0.284668H91.7414Z" fill="#009FE3"/>
<path d="M107.286 21.9932V5.05139H109.03V24.4829H106.674L99.1765 7.54105H99.1459V24.4829H97.3711V5.05139H99.7273L107.225 21.9932H107.286Z" fill="#009FE3"/>
</svg>
